<svg width="40" height="50" viewBox="0 0 61 70" fill="none" xmlns="http://www.w3.org/2000/svg">
<g clip-path="url(#clip0_48_14)">
<path d="M18.9681 23.5228L19.3747 23.4879C19.522 23.4716 19.6628 23.4187 19.7843 23.334L19.7814 23.3369C20.1706 24.6789 20.647 26.0906 21.2425 27.5691C22.0064 29.5037 22.7588 31.0926 23.6012 32.6263L23.485 32.3939C23.4153 33.4512 23.331 34.5376 23.2206 35.5891C23.1723 36.2095 23.0464 36.8214 22.8459 37.4104L22.8604 37.3581C22.8256 37.3727 22.7762 43.4 22.7762 43.4C22.7773 45.2702 23.4076 47.0857 24.5657 48.5542C25.7239 50.0226 27.3424 51.0587 29.1609 51.4956L29.219 51.5072C29.2997 51.2975 29.4419 51.1171 29.627 50.9896C29.812 50.8621 30.0313 50.7934 30.256 50.7927H31.9233C32.146 50.7957 32.3628 50.8642 32.5467 50.9897C32.7306 51.1153 32.8735 51.2923 32.9574 51.4985L32.9603 51.5072C34.7942 51.0833 36.4312 50.0527 37.6063 48.5824C38.7815 47.112 39.4258 45.2881 39.435 43.4059V43.403C39.435 43.403 39.3333 37.4017 39.2811 37.361C39.1079 36.7996 38.9893 36.2227 38.9267 35.6385L38.9238 35.5949C38.8221 34.5376 38.7553 33.4774 38.6594 32.3997C39.3769 31.1042 40.1293 29.5182 40.7915 27.8828L40.9019 27.5749C41.4974 26.0964 41.9593 24.6876 42.363 23.3427C42.4824 23.4274 42.6213 23.4804 42.7668 23.4966H42.7697L43.1793 23.5315C43.6731 23.5838 44.1088 23.1771 44.1494 22.5468L44.591 16.9377V16.9319C44.5907 16.7061 44.5083 16.4882 44.3592 16.3188C44.2101 16.1494 44.0044 16.04 43.7805 16.011H43.7254C44.1122 13.0903 43.8726 10.1206 43.0224 7.29966L43.0602 7.44781C42.2408 5.62861 40.9948 4.03391 39.4277 2.79903C37.8605 1.56415 36.0187 0.725549 34.0583 0.354378L33.9828 0.342759C33.0323 0.152201 32.0673 0.043359 31.0984 0.0174255H31.0374C30.0237 0.0355777 29.0141 0.150351 28.0222 0.360187L28.1268 0.342759C26.1675 0.706437 24.3238 1.53417 22.75 2.75667C21.1763 3.97918 19.9183 5.56088 19.0813 7.36938L19.0494 7.44781C18.2131 10.2579 17.9902 13.2148 18.3958 16.1185L18.3842 16.011C18.1598 16.0353 17.9521 16.1415 17.801 16.3092C17.6499 16.4769 17.5659 16.6945 17.5651 16.9202V16.9406L18.0066 22.5497C18.0473 23.1945 18.4888 23.5838 18.9652 23.5315L18.9681 23.5228Z" fill="#FFD700"/>
<path d="M62.2083 60.6456C62.005 51.8151 61.1219 49.8167 60.6456 48.463C60.4568 47.9199 60.3028 44.2482 54.2377 41.8663C50.5196 40.4023 45.7209 40.3733 41.66 38.6566V43.432C41.6558 45.8802 40.8004 48.2507 39.2402 50.1373C37.68 52.0239 35.5123 53.3092 33.1084 53.7729L33.0416 53.7846C32.9981 54.0422 32.8655 54.2764 32.6669 54.4463C32.4684 54.6162 32.2165 54.7109 31.9552 54.7141H31.903V58.316C31.903 60.0062 32.5744 61.6272 33.7696 62.8224C34.9648 64.0176 36.5858 64.689 38.276 64.689C39.9662 64.689 41.5872 64.0176 42.7824 62.8224C43.9776 61.6272 44.649 60.0062 44.649 58.316V55.8005C43.7718 55.6718 42.9721 55.2261 42.4012 54.5477C41.8304 53.8693 41.5279 53.0052 41.5511 52.1188C41.5743 51.2325 41.9215 50.3854 42.5271 49.7378C43.1327 49.0901 43.9546 48.6869 44.8374 48.6043C45.7202 48.5217 46.6026 48.7655 47.3178 49.2896C48.033 49.8137 48.5313 50.5818 48.7185 51.4484C48.9056 52.3151 48.7687 53.2203 48.3336 53.9928C47.8984 54.7653 47.1952 55.3516 46.357 55.6407L46.3309 55.6494V58.4525C46.3309 60.5896 45.482 62.6391 43.9708 64.1503C42.4597 65.6614 40.4102 66.5103 38.2731 66.5103C36.136 66.5103 34.0865 65.6614 32.5754 64.1503C31.0642 62.6391 30.2153 60.5896 30.2153 58.4525V58.3073V58.3131V54.6792C29.9666 54.6623 29.7308 54.5619 29.5463 54.3942C29.3618 54.2265 29.2393 54.0015 29.1986 53.7555V53.7497C26.7921 53.2908 24.6201 52.0093 23.0547 50.1248C21.4893 48.2404 20.6278 45.8702 20.618 43.4204V38.6072C16.5397 40.3588 11.7119 40.3936 7.97352 41.8605C1.89095 44.2395 1.75152 47.9024 1.56562 48.4543C1.10085 49.8138 0.206187 51.8035 0.00285401 60.6398C-0.0320031 61.8017 0.00285417 63.5823 3.506 65.1393C11.1339 68.1312 20.9607 69.0607 30.6481 69.7288H31.5776C41.2853 69.0665 51.0976 68.1399 58.7197 65.1393C62.2083 63.591 62.2403 61.822 62.2083 60.6485V60.6456ZM19.5635 57.0437H15.9442V60.6776H13.3589V57.0553H9.73962V54.4701H13.3589V50.8508H15.9442V54.4701H19.5635V57.0437Z" fill="#FFD700"/>
<path d="M47.1298 52.184V52.1811C47.1294 51.6628 46.9232 51.1658 46.5564 50.7995C46.1897 50.4332 45.6925 50.2275 45.1742 50.2277C44.6558 50.2279 44.1588 50.4339 43.7923 50.8005C43.4258 51.1671 43.22 51.6642 43.22 52.1826C43.22 52.7009 43.4258 53.1981 43.7923 53.5647C44.1588 53.9313 44.6558 54.1373 45.1742 54.1375C45.6925 54.1377 46.1897 53.932 46.5564 53.5657C46.9232 53.1994 47.1294 52.7024 47.1298 52.184Z" fill="#FFD700"/>
</g>
<defs>
<clipPath id="clip0_48_14">
<rect width="61" height="69.7143" fill="white"/>
</clipPath>
</defs>
</svg>
