<svg width="60" height="72" viewBox="0 0 60 72" fill="none" xmlns="http://www.w3.org/2000/svg">
<g clip-path="url(#clip0_48_11)">
<path d="M58.602 63.456C58.8307 59.4936 58.3117 55.5235 57.072 51.753L57.135 51.978C56.961 51.462 56.823 48 51.093 45.762C46.875 44.115 41.22 44.4 37.029 41.544C36.9285 41.2391 36.8503 40.9273 36.795 40.611L36.789 40.566C41.0372 39.7619 45.1073 38.2043 48.807 35.967L48.645 36.057C42.609 34.341 42.165 24.705 41.742 18.777C41.742 17.103 41.409 15.507 40.806 14.052L40.836 14.133C40.8043 14.0154 40.7743 13.8974 40.746 13.779L44.274 0.00299835H14.388L17.904 13.788C17.874 13.887 17.85 13.998 17.814 14.139C17.2105 15.6116 16.9026 17.1885 16.908 18.78C16.482 24.846 16.002 34.344 10.005 36.06C13.586 38.2197 17.5189 39.7328 21.624 40.53L21.852 40.566C21.78 40.956 21.696 41.283 21.594 41.604L21.612 41.544C17.424 44.4 11.772 44.109 7.54802 45.762C1.82102 48 1.68602 51.462 1.51202 51.978C0.549019 54.864 -0.00598145 58.188 -0.00598145 61.641C-0.00598145 62.28 0.0120186 62.913 0.0510186 63.543L0.0480186 63.456C0.0180186 64.56 0.0480186 66.225 3.35102 67.674C13.134 71.961 29.271 71.994 29.334 71.994C38.3758 71.9432 47.3494 70.4255 55.905 67.5L55.317 67.674C58.611 66.225 58.632 64.56 58.611 63.447L58.602 63.456ZM41.421 2.214L38.496 13.716H20.127L17.202 2.214H41.421Z" fill="#FFD700"/>
<path d="M24.702 9.189H27.933V12.426H30.69V9.189H33.927V6.438H30.678V3.213H27.921V6.45H24.702V9.189Z" fill="#FFD700"/>
</g>
<defs>
<clipPath id="clip0_48_11">
<rect width="60" height="72" fill="white"/>
</clipPath>
</defs>
</svg>
