<svg width="60" height="53" viewBox="0 0 60 53" fill="none" xmlns="http://www.w3.org/2000/svg">
<path d="M50.6676 10.906C42.6541 5.61123 32.0031 4.40602 23.1552 6.00289C13.2562 -3.545 2.16354 0.846654 0 2.10915C0 2.10915 7.61248 8.57789 6.37603 14.2435C-2.63645 23.431 1.64791 33.6601 6.37603 38.4903C7.61248 44.1559 0 50.6247 0 50.6247C2.1427 51.8913 13.2052 56.2694 23.1552 46.7705C31.9833 48.357 42.6343 47.1622 50.6676 41.858C63.0905 33.9268 63.1311 18.8779 50.6676 10.905V10.906ZM30.6437 41.807C27.5456 41.8159 24.4599 41.4177 21.4656 40.6226L19.4062 42.6111C18.2623 43.7205 16.9815 44.6793 15.5948 45.4643C13.9123 46.3114 12.0846 46.832 10.2083 46.9986C10.3125 46.8132 10.4041 46.6278 10.4969 46.4528C12.5573 42.6334 13.1128 39.2066 12.1635 36.1726C8.77498 33.5049 6.74686 30.0955 6.74686 26.3674C6.74686 17.8258 17.4489 10.906 30.6437 10.906C43.8384 10.906 54.5405 17.8258 54.5405 26.3674C54.5405 34.9091 43.8384 41.807 30.6437 41.807ZM19.1791 30.0445C18.2331 30.0579 17.3203 29.6957 16.6408 29.0373C15.9614 28.3789 15.5706 27.478 15.5541 26.532C15.4812 21.8039 22.6197 21.7008 22.6916 26.4185V26.4716C22.696 26.937 22.6086 27.3988 22.4344 27.8304C22.2602 28.2621 22.0027 28.6552 21.6764 28.9872C21.3502 29.3192 20.9617 29.5837 20.5332 29.7655C20.1047 29.9472 19.6446 30.0428 19.1791 30.0466V30.0445ZM26.8635 26.532C26.7812 21.8039 33.9197 21.6904 34.002 26.4081V26.4716C34.0426 31.1674 26.9458 31.2185 26.8635 26.532ZM41.7989 30.0445C40.8527 30.0579 39.9398 29.6957 39.2602 29.0374C38.5806 28.379 38.1895 27.4781 38.1728 26.532C38.101 21.8039 45.2395 21.7008 45.3114 26.4185V26.4716C45.3173 26.9375 45.2309 27.3999 45.0573 27.8322C44.8836 28.2645 44.6261 28.6582 44.2996 28.9905C43.9731 29.3229 43.584 29.5873 43.1548 29.7685C42.7256 29.9498 42.2648 30.0443 41.7989 30.0466V30.0445Z" fill="#FFD700"/>
</svg>
